<svg xmlns="http://www.w3.org/2000/svg" width="17.339" height="19.816" viewBox="0 0 17.339 19.816">
  <path id="Icon_awesome-calendar-alt" data-name="Icon awesome-calendar-alt" d="M0,17.958a1.858,1.858,0,0,0,1.858,1.858H15.481a1.858,1.858,0,0,0,1.858-1.858V7.431H0Zm12.385-7.586a.466.466,0,0,1,.464-.464H14.4a.466.466,0,0,1,.464.464v1.548a.466.466,0,0,1-.464.464H12.85a.466.466,0,0,1-.464-.464Zm0,4.954a.466.466,0,0,1,.464-.464H14.4a.466.466,0,0,1,.464.464v1.548a.466.466,0,0,1-.464.464H12.85a.466.466,0,0,1-.464-.464ZM7.431,10.373A.466.466,0,0,1,7.9,9.908H9.444a.466.466,0,0,1,.464.464v1.548a.466.466,0,0,1-.464.464H7.9a.466.466,0,0,1-.464-.464Zm0,4.954a.466.466,0,0,1,.464-.464H9.444a.466.466,0,0,1,.464.464v1.548a.466.466,0,0,1-.464.464H7.9a.466.466,0,0,1-.464-.464ZM2.477,10.373a.466.466,0,0,1,.464-.464H4.49a.466.466,0,0,1,.464.464v1.548a.466.466,0,0,1-.464.464H2.941a.466.466,0,0,1-.464-.464Zm0,4.954a.466.466,0,0,1,.464-.464H4.49a.466.466,0,0,1,.464.464v1.548a.466.466,0,0,1-.464.464H2.941a.466.466,0,0,1-.464-.464Zm13-12.85H13.624V.619A.621.621,0,0,0,13,0H11.766a.621.621,0,0,0-.619.619V2.477H6.193V.619A.621.621,0,0,0,5.573,0H4.335a.621.621,0,0,0-.619.619V2.477H1.858A1.858,1.858,0,0,0,0,4.335V6.193H17.339V4.335A1.858,1.858,0,0,0,15.481,2.477Z" fill="#707070"/>
</svg>
