<svg xmlns="http://www.w3.org/2000/svg" width="23.279" height="16.528" viewBox="0 0 23.279 16.528">
  <g id="Group_2879" data-name="Group 2879" transform="translate(13034 -281.838)">
    <path id="Path_22428" data-name="Path 22428" d="M11.835,21.775H.547c-.068,0-.136,0-.2,0-.1,0-.146-.055-.146-.169V20.164c0-.126.061-.193.17-.193.058,0,.112,0,.17,0H23.13c.333,0,.346.016.346.4v1.142c0,.244-.02.268-.238.268h-11.4Z" transform="translate(-13034.197 276.592)" fill="#707070"/>
    <g id="Group_2878" data-name="Group 2878" transform="translate(0.199)">
      <line id="Line_220" data-name="Line 220" x1="4.85" y1="4.85" transform="translate(-13027.199 288.65)" fill="none" stroke="#707070" stroke-linecap="round" stroke-width="1.5"/>
      <line id="Line_221" data-name="Line 221" y1="4.85" x2="4.85" transform="translate(-13022.35 288.65)" fill="none" stroke="#707070" stroke-linecap="round" stroke-width="1.5"/>
      <line id="Line_222" data-name="Line 222" y1="9.699" transform="translate(-13022.35 282.588)" fill="none" stroke="#707070" stroke-linecap="round" stroke-width="1.5"/>
    </g>
  </g>
</svg>
