<svg xmlns="http://www.w3.org/2000/svg" width="20.753" height="19.715" viewBox="0 0 20.753 19.715">
  <path id="Icon_material-card-travel" data-name="Icon material-card-travel" d="M21.678,7.151H18.565V5.075A2.068,2.068,0,0,0,16.489,3H10.263A2.068,2.068,0,0,0,8.188,5.075V7.151H5.075A2.068,2.068,0,0,0,3,9.226V20.64a2.068,2.068,0,0,0,2.075,2.075h16.6a2.068,2.068,0,0,0,2.075-2.075V9.226A2.068,2.068,0,0,0,21.678,7.151ZM10.263,5.075h6.226V7.151H10.263ZM21.678,20.64H5.075V18.565h16.6Zm0-5.188H5.075V9.226H8.188V11.3h2.075V9.226h6.226V11.3h2.075V9.226h3.113Z" transform="translate(-3 -3)" opacity="0.5"/>
</svg>
