<?xml version="1.0" encoding="utf-8"?>
<svg id="master-artboard" viewBox="0 0 300 300" version="1.1" xmlns="http://www.w3.org/2000/svg" x="0px" y="0px" style="enable-background:new 0 0 336 235.2;"><defs><radialGradient id="gradient-0" gradientUnits="objectBoundingBox" cx="0.5" cy="0.5" r="0.5">
                <stop offset="0" style="stop-color: #ffffff"/>
                <stop offset="1" style="stop-color: #cccccc"/>
              </radialGradient></defs><rect id="ee-background" x="0" y="0" width="300" height="300" style="fill: rgb(255, 255, 255); fill-opacity: 0; pointer-events: none;"/>
			  <g transform="matrix(3, 0, 0, 3, 0.00003044595359824598, 0)"><path d="M 97 50 A 47 47 0 0 1 50 97 A 47 47 0 0 1 3 50 A 47 47 0 0 1 50 3 A 47 47 0 0 1 97 50 Z" fill="none" stroke="#F9BE07" stroke-width="1" stroke-miterlimit="100" stroke-dasharray="230,150">
      <animateTransform attributeName="transform" attributeType="XML" type="rotate" dur="2s" from="0 50 50" to="360 50 50" repeatCount="indefinite"/>
  </path>
  </g>
  
  <svg class="icon" width="80%" height="80%" xmlns="http://www.w3.org/2000/svg" version="1.1" id="Layer_1" x="20px" y="20px" viewBox="0 0 51.7 102.9" style="enable-background:new 0 0 51.7 102.9;">
		
		<g>
		
			<path class="st1" d="M41.1,47.2c-7,11.1-17.5,29.5-28.5,45.3c0,0,0,0,0,0c-0.7,0.9-1.3,1.9-2,2.8c-2.9,3.6-6.6,6.3-4.9,3.6   C7,97.1,7.7,94.8,8,92.6c0.1-0.5,0.1-1,0.1-1.4C8,90.5,8,89.7,8,89.4v0c0-1.4-0.1-2.5,1.2-3.1c2.2-1,4-2.4,5.7-8.5   c0.1-0.3,0.2-0.5,0.2-0.7c0,0,1.1-3.7,2.1-5.2h0c0.1-0.2,0.6-0.9,0.7-1.1c0.4-0.5,0.7-0.9,0.7-0.9c1.1-1.3,2.6-2.5,4.8-4   c5.5-3.8,1.8-13.7,4.1-19c2.2-5.3,7-7.2,7-7.2s-1.8-6.7-3.7-9.8c0,0-0.1,0.1-0.2,0.1l0.1-0.1c-0.3,0.1-17.7,9-20.2,15.8   c-1.5,4-6.9,3.5-6.9,3.5s18.4-21.9,27-27.6c2.4-1.6,4.4-2.6,6.1-3.3l-0.3-3.6c-2.4,0-4.7-1.6-5.5-4c-1-3.1,0.6-6.4,3.7-7.5   c1.8-0.6,3.7-0.3,5.1,0.7l0,0c0.1,0.1,4.3,3,4.3,3l-1,2l1.6,2.6l-2.1,1.8l0.8,3.6C43.3,17.1,55.1,25.1,41.1,47.2z" style="fill: rgb(246, 188, 23);"/>
			<animate attributeName="opacity" dur="1s" values="0;1;0" repeatCount="indefinite" begin="0.1"/>
		</g>
		<path class="st3" d="M8,88c0,0,0,0.5-0.1,1.4c0,0,0,0,0,0c0,0.4-0.1,0.8-0.1,1.3c0,0,0,0,0,0c-0.2,2.5-0.8,6.1-2.1,8.1  c-1.7,2.7,2,0,4.9-3.6c0.6-0.8,1.2-1.6,1.7-2.5c0.1-0.1,0.1-0.2,0.2-0.3c0,0,0,0,0,0" style="fill: none;"/>
	</svg>
	</svg>