<svg id="babylon_logo_-_white-03" data-name="babylon logo - white-03" xmlns="http://www.w3.org/2000/svg" width="93.824" height="45.785" viewBox="0 0 93.824 45.785">
  <g id="Group_2" data-name="Group 2" transform="translate(0 11.77)">
    <path id="Path_16" data-name="Path 16" d="M256.6,143h1.771a1.421,1.421,0,0,1,1.088.38.919.919,0,0,1,.278.658h0a.992.992,0,0,1-.658.962c.506.152.886.43.886,1.012h0c0,.708-.607,1.139-1.518,1.139H256.6Zm2.682,1.088c0-.4-.329-.683-.936-.683h-1.265v1.442h1.24c.557,0,.962-.253.962-.759Zm-.886,1.189h-1.316v1.468h1.392c.633,0,1.037-.278,1.037-.734h0c0-.481-.38-.734-1.113-.734" transform="translate(-192.077 -118.928)" fill="#fff"/>
    <path id="Path_17" data-name="Path 17" d="M272.9,144.876h0a2.117,2.117,0,0,1,2.126-2.176,2.1,2.1,0,0,1,2.125,2.151h0A2.1,2.1,0,0,1,275,147a2.069,2.069,0,0,1-2.1-2.125m3.77,0h0a1.666,1.666,0,0,0-1.645-1.746,1.644,1.644,0,0,0-1.645,1.721h0a1.646,1.646,0,1,0,3.289.025" transform="translate(-204.253 -118.704)" fill="#fff"/>
    <path id="Path_18" data-name="Path 18" d="M293,144.876h0a2.126,2.126,0,1,1,4.251-.025h0A2.1,2.1,0,0,1,295.125,147,2.06,2.06,0,0,1,293,144.876m3.77,0h0a1.666,1.666,0,0,0-1.645-1.746,1.644,1.644,0,0,0-1.645,1.721h0a1.646,1.646,0,1,0,3.289.025" transform="translate(-219.267 -118.704)" fill="#fff"/>
    <path id="Path_19" data-name="Path 19" d="M313.7,143h.481v2.48l2.4-2.48h.607l-1.8,1.822,1.872,2.353h-.582l-1.619-2.024-.886.886v1.139H313.7Z" transform="translate(-234.729 -118.928)" fill="#fff"/>
    <rect id="Rectangle_3" data-name="Rectangle 3" width="0.481" height="4.175" transform="translate(83.323 24.072)" fill="#fff"/>
    <path id="Path_20" data-name="Path 20" d="M337.6,143h.43l2.632,3.34V143h.455v4.175h-.379l-2.682-3.441v3.441H337.6Z" transform="translate(-252.582 -118.928)" fill="#fff"/>
    <path id="Path_21" data-name="Path 21" d="M355.5,144.876h0a2.1,2.1,0,0,1,2.1-2.176,2.235,2.235,0,0,1,1.569.557l-.3.354a1.8,1.8,0,0,0-1.265-.481,1.634,1.634,0,0,0-1.594,1.721h0a1.622,1.622,0,0,0,1.645,1.746,2.053,2.053,0,0,0,1.215-.4v-1.037H357.6v-.43h1.721v1.67a2.5,2.5,0,0,1-1.67.633,2.058,2.058,0,0,1-2.151-2.151" transform="translate(-265.953 -118.704)" fill="#fff"/>
    <path id="Path_22" data-name="Path 22" d="M232.289,50.934V62.548c0,3.365,1.7,4.15,3.34,4.15,1.67,0,2.758-.759,2.758-1.9,0-.759-.936-.886-.936-.886a1.782,1.782,0,0,1-1.746,1.594c-1.189,0-1.67-1.189-1.67-2.783V50.377c-.025-1.088-.228-1.872-1.341-2.277-.683-.253-1.417-.152-1.594.3,1.139.4,1.189,1.619,1.189,2.53" transform="translate(-173.03 -47.939)" fill="#fff"/>
    <path id="Path_23" data-name="Path 23" d="M8.837,53.668a5.077,5.077,0,0,0-4.3,2.353V50.252C4.51,49.164,4.307,48.4,3.194,48c-.683-.253-1.417-.152-1.594.3a1.976,1.976,0,0,1,1.164,2.05V63.511c0,.886-.025,2.1-1.164,2.53.177.481.911.557,1.594.3,1.113-.4,1.316-1.164,1.341-2.277V59.842c0-2.556,1.771-5.035,4.3-5.035,2.783,0,4.048,2.454,4.048,5.339,0,2.91-1.468,5.314-4,5.314A2.444,2.444,0,0,1,6.762,64.4a.805.805,0,0,0-.784.784c0,.582.683,1.392,2.91,1.392,4.074,0,5.87-3.922,5.87-6.452,0-3.289-1.619-6.452-5.921-6.452" transform="translate(-1.6 -47.864)" fill="#fff"/>
    <path id="Path_24" data-name="Path 24" d="M332.667,80.869V75.277c0-2.505-1.417-4.377-4.58-4.377a5.057,5.057,0,0,0-4.276,2.151,2.046,2.046,0,0,0-1.417-2c-.683-.253-1.417-.152-1.594.3a2.375,2.375,0,0,1,1.265,2.353V81.2c-.025.835-.177,1.847-1.164,2.2.177.481.911.557,1.594.3a1.8,1.8,0,0,0,1.29-1.746v-4.58c0-3.315,1.8-5.212,4.048-5.212,1.923,0,3.087,1.063,3.087,3.72v5.567c.025,1.088.228,1.872,1.341,2.277.683.253,1.417.152,1.594-.3-1.139-.43-1.189-1.645-1.189-2.556" transform="translate(-240.033 -65.071)" fill="#fff"/>
    <path id="Path_25" data-name="Path 25" d="M131.558,60.171c0-3.365-1.619-6.5-5.921-6.5a5.077,5.077,0,0,0-4.3,2.353V50.252c-.025-1.088-.228-1.847-1.341-2.252-.683-.253-1.417-.152-1.594.3a1.976,1.976,0,0,1,1.164,2.05V63.511c0,.886-.025,2.1-1.164,2.53.177.481.911.557,1.594.3,1.113-.4,1.316-1.164,1.341-2.277V59.842c0-2.556,1.771-5.035,4.3-5.035,2.783,0,4.048,2.454,4.048,5.339,0,2.91-1.468,5.339-4,5.339a2.455,2.455,0,0,1-2.125-1.037.788.788,0,0,0-.784.784c0,.582.683,1.392,2.91,1.392,4.048,0,5.87-3.9,5.87-6.452" transform="translate(-88.846 -47.864)" fill="#fff"/>
    <path id="Path_26" data-name="Path 26" d="M72.874,80.969V75.479c0-3.391-1.847-4.479-4.732-4.479-2.632,0-4.605,1.164-4.605,2.758a1.319,1.319,0,0,0,1.29,1.392c0-1.265.734-3.011,3.315-3.011,2.91,0,2.96,2.176,2.96,3.365v.962h-1.67c-3.821,0-6.933.734-6.933,3.973,0,2.657,2.606,3.542,4.226,3.542,2.859,0,3.112-.962,3.112-1.518a.9.9,0,0,0-.557-.734,2.946,2.946,0,0,1-2.5,1.189,2.374,2.374,0,0,1-2.48-2.454c0-2.125,1.847-2.859,5.061-2.859h1.7v3.973c.025,1.088.228,1.872,1.341,2.277.683.253,1.417.152,1.594-.3-1.063-.481-1.113-1.7-1.113-2.581" transform="translate(-47.09 -65.146)" fill="#fff"/>
    <path id="Path_27" data-name="Path 27" d="M286.043,86.2a11.585,11.585,0,0,1,.076,1.341c0,2.606-1.189,5.238-4.352,5.238h-.3c-.3.329-.633.658-.987,1.012-.025.025-.051.025-.076.051a7.318,7.318,0,0,0,1.341.127c4.5,0,6.047-3.391,6.047-6.4a7.975,7.975,0,0,0-.582-3.163c-.354.582-.759,1.215-1.164,1.8" transform="translate(-209.855 -75.155)" fill="#fff"/>
    <path id="Path_28" data-name="Path 28" d="M271.067,71.762a6.123,6.123,0,0,0-3.542-.962c-4.858,0-6.225,3.517-6.225,6.579a6.393,6.393,0,0,0,2.657,5.415l.455-.4.557-.506a5.317,5.317,0,0,1-1.948-4.5c0-2.454,1.037-5.415,4.5-5.415A3.954,3.954,0,0,1,270.51,73.1,7.235,7.235,0,0,1,271.067,71.762Z" transform="translate(-195.588 -64.997)" fill="#fff"/>
    <path id="Path_29" data-name="Path 29" d="M186.883,70.725c-1.189,0-1.619.658-2.024,1.67-.38,1.012-3.188,9.058-3.517,9.919-.3-.076-.759-.278-1.164-1.24-.127-.3-3.062-8.679-3.062-8.7-.4-1.012-.835-1.67-2.024-1.67-.734,0-1.392.329-1.392.835,1.215,0,1.645,1.139,1.974,1.974.025.1,2.2,5.921,2.2,5.921.3.81.582,1.543.86,2.151a2.656,2.656,0,0,0,2.2,1.822c-.127.3-.987,2.556-1.341,3.34l1.544-.025c.253-.557,4.529-11.589,5.137-13.183.3-.835.759-1.974,1.974-1.974C188.275,71.054,187.617,70.725,186.883,70.725Z" transform="translate(-130.154 -64.922)" fill="#fff"/>
  </g>
  <path id="Path_30" data-name="Path 30" d="M188.642,5.106l-.2-.962L189,3.664l-.43-.708.278-.531s-1.113-.81-1.139-.81h0a1.585,1.585,0,0,0-2.379,1.822,1.631,1.631,0,0,0,1.493,1.088l.076.987a9.064,9.064,0,0,0-1.645.886c-2.3,1.518-7.287,7.439-7.287,7.439s1.442.127,1.847-.936c.683-1.847,5.44-4.276,5.44-4.276l-.025.025c.025,0,.025-.025.051-.025a14.313,14.313,0,0,1,.987,2.657,3.766,3.766,0,0,0-1.9,1.948c-.607,1.442.38,4.1-1.088,5.111a6.7,6.7,0,0,0-1.29,1.088s-.1.1-.2.228c-.025.051-.177.253-.2.3h0A7.832,7.832,0,0,0,181,21.376a1.747,1.747,0,0,0-.076.2c-.481,1.645-.962,2.024-1.544,2.277-.531.253-.152.86-.455,1.594a19.789,19.789,0,0,1-1.7,2.48c-.076.1-1.316,1.619-1.721,2.05-.025.025-.329.3-.633.582-.177.152-.354.3-.455.4a11.1,11.1,0,0,1-1.265.936,15.117,15.117,0,0,1-1.872,1.037,20.672,20.672,0,0,1-3.112,1.088,25.132,25.132,0,0,1-4.276.784c-1.594.152-3.062.2-4.251.2-.506,0-1.265-.025-1.822-.051h-.734c-.278,0-1.543.025-1.543.025l-1.468.076a23.363,23.363,0,0,0-6.629,1.316c-.531.2-1.063.455-1.594.708-2.53,1.215-6.478,5.339-2.859,8.856.4.38,4.479,3.8,9.691-3.036a20.718,20.718,0,0,0,1.493-2.024,33.247,33.247,0,0,0,1.645-3.188h-1.569c-.38.683-.86,1.619-1.316,2.4-.43.708-.86,1.366-1.366,2.05a20.545,20.545,0,0,1-1.746,1.948,6.358,6.358,0,0,1-3.871,1.67,3.123,3.123,0,0,1-2.834-1.822,2.89,2.89,0,0,1,.127-2.682c1.923-3.77,7.211-4.529,7.743-4.656,5.238-1.164,11.994.354,18.4-1.822a24.093,24.093,0,0,0,2.48-.987,14.624,14.624,0,0,0,3.871-2.632c4.4-4.327,9.413-13.385,12.3-17.94,3.745-5.972.607-8.122.607-8.122" transform="translate(-106.129 -1.348)" fill="#f9be07"/>
</svg>
