<svg xmlns="http://www.w3.org/2000/svg" width="15.583" height="18.18" viewBox="0 0 15.583 18.18">
  <path id="Icon_metro-language" data-name="Icon metro-language" d="M11.4,13.14q-.01.03-.127-.005t-.32-.117l-.2-.091a6.078,6.078,0,0,1-.883-.5q-.071-.051-.416-.32t-.386-.289a17.284,17.284,0,0,1-1.359,1.836,7.542,7.542,0,0,1-1.065,1.116.8.8,0,0,1-.2.041.391.391,0,0,1-.188,0q.061-.041.832-.933.213-.243.867-1.167a14.184,14.184,0,0,0,.8-1.2q.172-.3.517-1a7.908,7.908,0,0,0,.365-.786,8.337,8.337,0,0,0-1.116.335q-.081.02-.279.076l-.35.1a1.738,1.738,0,0,0-.172.051.172.172,0,0,0-.02.107.225.225,0,0,1-.01.1q-.051.1-.315.152a.818.818,0,0,1-.477,0,.428.428,0,0,1-.284-.213.516.516,0,0,1-.051-.233,1.96,1.96,0,0,1,.249-.051,3.029,3.029,0,0,0,.3-.061q.588-.162,1.065-.325,1.015-.355,1.035-.355a2.251,2.251,0,0,0,.436-.2,4.589,4.589,0,0,1,.446-.218q.091-.03.218-.081t.147-.056a.136.136,0,0,1,.061.005,1.154,1.154,0,0,1-.01.335,2.16,2.16,0,0,1-.127.274q-.127.254-.269.543t-.172.34a15.216,15.216,0,0,1-.781,1.329l.649.284q.122.061.756.325l.685.284q.041.01.107.259a.769.769,0,0,1,.046.309ZM9.325,8.209a.411.411,0,0,1-.041.284.92.92,0,0,1-.507.386A1.629,1.629,0,0,1,8.168,9a.84.84,0,0,1-.5-.264.763.763,0,0,1-.183-.416l.01-.03a.434.434,0,0,0,.2.051.882.882,0,0,0,.269,0q.1-.02.588-.162a2.9,2.9,0,0,1,.558-.142.2.2,0,0,1,.213.172Zm7.081,1.309.639,2.3-1.41-.426ZM5.166,17.634l7.041-2.354V4.811L5.166,7.175v10.46Zm12.59-3.216,1.035.314L16.954,8.067,15.94,7.753l-2.191,5.438,1.035.314.457-1.116,2.141.659Zm-5.1-9.76,5.813,1.867V2.67Zm3.155,13.422,1.6.132-.548,1.623-.406-.67a7.521,7.521,0,0,1-2.8,1.1,4.862,4.862,0,0,1-.923.122h-.852a6.857,6.857,0,0,1-2.024-.4A6.737,6.737,0,0,1,8,19.126a.211.211,0,0,1-.081-.162.2.2,0,0,1,.051-.137.17.17,0,0,1,.132-.056.571.571,0,0,1,.183.076l.309.167.208.112a8.989,8.989,0,0,0,1.618.624,5.911,5.911,0,0,0,1.6.249,8.657,8.657,0,0,0,1.694-.147,8.361,8.361,0,0,0,1.593-.512q.152-.071.309-.157t.345-.193q.188-.107.289-.167ZM20.353,7.134V18.081l-7.852-2.5q-.142.061-3.8,1.294T4.963,18.111a.184.184,0,0,1-.183-.132.078.078,0,0,0-.01-.03V7.012a.453.453,0,0,1,.041-.1.456.456,0,0,1,.2-.112q1.075-.355,1.512-.507V2.4L12.186,4.4q.02,0,1.628-.558t3.206-1.1q1.6-.543,1.638-.543.2,0,.2.213V6.657Z" transform="translate(-4.77 -2.203)" fill="#fff"/>
</svg>
