<svg xmlns="http://www.w3.org/2000/svg" width="19.101" height="19.101" viewBox="0 0 19.101 19.101">
  <path id="Path_22426" data-name="Path 22426" d="M16.221,12.7a1.32,1.32,0,0,0,.264,1.456l.048.048a1.6,1.6,0,1,1-2.264,2.264l-.048-.048a1.331,1.331,0,0,0-2.256.944V17.5a1.6,1.6,0,0,1-3.2,0v-.072A1.32,1.32,0,0,0,7.9,16.221a1.32,1.32,0,0,0-1.456.264l-.048.048a1.6,1.6,0,1,1-2.264-2.264l.048-.048a1.331,1.331,0,0,0-.944-2.256H3.1a1.6,1.6,0,1,1,0-3.2h.072A1.32,1.32,0,0,0,4.38,7.9a1.32,1.32,0,0,0-.264-1.456L4.068,6.4A1.6,1.6,0,1,1,6.332,4.132l.048.048a1.32,1.32,0,0,0,1.456.264H7.9a1.32,1.32,0,0,0,.8-1.208V3.1a1.6,1.6,0,1,1,3.2,0v.072a1.331,1.331,0,0,0,2.256.944l.048-.048a1.6,1.6,0,1,1,2.264,2.264l-.048.048a1.32,1.32,0,0,0-.264,1.456V7.9a1.32,1.32,0,0,0,1.208.8H17.5a1.6,1.6,0,1,1,0,3.2h-.072a1.32,1.32,0,0,0-1.208.8Z" transform="translate(-0.75 -0.75)" fill="none" stroke="#fff" stroke-linecap="round" stroke-linejoin="round" stroke-width="1.5"/>
</svg>
