<svg xmlns="http://www.w3.org/2000/svg" width="16.165" height="16.165" viewBox="0 0 16.165 16.165">
  <g id="Group_2665" data-name="Group 2665" transform="translate(-1039 -2079)">
    <g id="exchange" transform="translate(1039 2079)">
      <path id="Path_22388" data-name="Path 22388" d="M229.465,224.934A4.532,4.532,0,1,0,234,229.466,4.537,4.537,0,0,0,229.465,224.934Zm.634,6.781h-.16V232a.474.474,0,0,1-.947,0v-.287h-.541a.474.474,0,1,1,0-.947H230.1a.414.414,0,0,0,0-.828H228.83a1.361,1.361,0,0,1,0-2.723h.161v-.287a.474.474,0,0,1,.947,0v.287h.541a.474.474,0,1,1,0,.947H228.83a.414.414,0,0,0,0,.828H230.1a1.361,1.361,0,0,1,0,2.723Z" transform="translate(-217.831 -217.832)" fill="#fff"/>
      <path id="Path_22389" data-name="Path 22389" d="M4.532,9.063A4.532,4.532,0,1,0,0,4.532,4.537,4.537,0,0,0,4.532,9.063ZM2.249,4.058h.586A2.506,2.506,0,0,1,5.293,2.029a.474.474,0,0,1,0,.947A1.558,1.558,0,0,0,3.811,4.058h.974a.474.474,0,1,1,0,.947H3.811A1.558,1.558,0,0,0,5.293,6.087a.474.474,0,1,1,0,.947A2.506,2.506,0,0,1,2.835,5.005H2.249a.474.474,0,0,1,0-.947Z" transform="translate(0)" fill="#fff"/>
      <path id="Path_22390" data-name="Path 22390" d="M305.741,17.013h1.015a3.081,3.081,0,0,1,3.077,3.077v.378l-.206-.206a.474.474,0,1,0-.67.67l1.014,1.015a.474.474,0,0,0,.67,0l1.015-1.015a.474.474,0,0,0-.67-.67l-.206.206V20.09a4.029,4.029,0,0,0-4.024-4.024h-1.015a.474.474,0,1,0,0,.947Z" transform="translate(-295.629 -15.559)" fill="#fff"/>
      <path id="Path_22391" data-name="Path 22391" d="M6.054,310.339H5.039a3.081,3.081,0,0,1-3.077-3.077v-.378l.206.206a.474.474,0,1,0,.67-.67L1.823,305.4a.473.473,0,0,0-.67,0L.139,306.419a.474.474,0,0,0,.67.67l.206-.206v.378a4.029,4.029,0,0,0,4.024,4.024H6.054a.474.474,0,0,0,0-.947Z" transform="translate(0 -295.628)" fill="#fff"/>
    </g>
  </g>
</svg>
